<svg width="33" height="18" viewBox="0 0 33 18" fill="none" xmlns="http://www.w3.org/2000/svg">
<rect width="33" height="18" rx="9" fill="#FF3033"/>
<path d="M7.23633 13V4.36328H8.50781L11.4844 8.8457H11.5312L14.5137 4.36328H15.7793V13H14.1035V9.63672L14.1387 7.51562H14.0918L11.6953 11.2539H11.3203L8.92383 7.51562H8.87695L8.91211 9.63672V13H7.23633ZM20.0859 13.0938C19.4883 13.0938 18.9453 12.957 18.457 12.6836C17.9727 12.4062 17.5859 12.0234 17.2969 11.5352C17.0117 11.0469 16.8691 10.4844 16.8691 9.84766C16.8691 9.21094 17.0117 8.65234 17.2969 8.17188C17.5859 7.6875 17.9727 7.31055 18.457 7.04102C18.9453 6.76758 19.4883 6.63086 20.0859 6.63086C20.6953 6.63086 21.2422 6.76758 21.7266 7.04102C22.2109 7.31055 22.5938 7.6875 22.875 8.17188C23.1602 8.65234 23.3027 9.21094 23.3027 9.84766C23.3027 10.4844 23.1602 11.0469 22.875 11.5352C22.5898 12.0234 22.2051 12.4062 21.7207 12.6836C21.2363 12.957 20.6914 13.0938 20.0859 13.0938ZM20.0859 11.6934C20.4023 11.6934 20.6855 11.6172 20.9355 11.4648C21.1855 11.3086 21.3828 11.0918 21.5273 10.8145C21.6719 10.5371 21.7441 10.2148 21.7441 9.84766C21.7441 9.48828 21.6738 9.17383 21.5332 8.9043C21.3926 8.63086 21.1973 8.41797 20.9473 8.26562C20.7012 8.10938 20.416 8.03125 20.0918 8.03125C19.7754 8.03125 19.4922 8.10742 19.2422 8.25977C18.9922 8.4082 18.7949 8.61914 18.6504 8.89258C18.5059 9.16602 18.4336 9.48438 18.4336 9.84766C18.4336 10.2148 18.5059 10.5371 18.6504 10.8145C18.7949 11.0918 18.9902 11.3086 19.2363 11.4648C19.4863 11.6172 19.7695 11.6934 20.0859 11.6934ZM21.7324 8.0957L21.709 7.04688C22.1309 7.04297 22.4375 6.94727 22.6289 6.75977C22.8203 6.57227 22.916 6.29102 22.916 5.91602C22.916 5.81836 22.9102 5.71875 22.8984 5.61719C22.8906 5.51562 22.875 5.41406 22.8516 5.3125L24.0293 5.10156C24.0762 5.23438 24.1074 5.38867 24.123 5.56445C24.1387 5.73633 24.1465 5.87305 24.1465 5.97461C24.1465 6.42383 24.0293 6.8125 23.7949 7.14062C23.5645 7.46484 23.2637 7.71094 22.8926 7.87891C22.5215 8.04688 22.1348 8.11914 21.7324 8.0957ZM20.0742 6.19727L19.377 5.59375L21.0352 3.42578L21.9961 4.3457L20.0742 6.19727ZM24.3223 13V6.72461H25.9395V13H24.3223ZM25.125 5.92773C24.8398 5.92773 24.5977 5.82812 24.3984 5.62891C24.1992 5.42578 24.0996 5.18164 24.0996 4.89648C24.0996 4.60742 24.1992 4.36523 24.3984 4.16992C24.5977 3.9707 24.8398 3.87109 25.125 3.87109C25.4141 3.87109 25.6562 3.9707 25.8516 4.16992C26.0508 4.36523 26.1504 4.60742 26.1504 4.89648C26.1504 5.18164 26.0508 5.42578 25.8516 5.62891C25.6562 5.82812 25.4141 5.92773 25.125 5.92773Z" fill="white"/>
</svg>
